{
  "asset": {
    "copyright": "Copyright 2020 Omabuarts Studio. For more info, visit https://omabuarts.com/license",
    "generator": "Khronos glTF Blender I/O v1.6.16",
    "version": "2.0"
  },
  "scene": 0,
  "scenes": [
    {
      "name": "Scene",
      "nodes": [9]
    }
  ],
  "nodes": [
    {
      "name": "wing.L",
      "rotation": [
        -0.00634123245254159, 0.24987958371639252, -0.9671568870544434,
        0.046127427369356155
      ],
      "scale": [0.9999999403953552, 1, 1.0000001192092896],
      "translation": [
        0.6191527247428894, -0.07751679420471191, 0.0317707359790802
      ]
    },
    {
      "name": "wing.R",
      "rotation": [
        -0.00634123245254159, -0.24987958371639252, 0.9671568870544434,
        0.046127427369356155
      ],
      "scale": [0.9999999403953552, 1, 1.0000001192092896],
      "translation": [
        -0.6191527247428894, -0.07751679420471191, 0.0317707359790802
      ]
    },
    {
      "name": "tail.01",
      "rotation": [
        -7.285447622962238e-8, 0.2622983455657959, -0.9649868607521057,
        1.980298236503586e-8
      ],
      "scale": [1, 0.9999996423721313, 0.9999993443489075],
      "translation": [
        1.716845125089331e-16, -0.37088972330093384, -0.42864683270454407
      ]
    },
    {
      "name": "tail.02",
      "rotation": [
        -7.266114465664941e-8, 0.27154409885406494, -0.9624260067939758,
        2.0501010666862385e-8
      ],
      "translation": [
        1.4244317492937114e-16, -0.5153664350509644, -0.3770243227481842
      ]
    },
    {
      "name": "feet.L",
      "rotation": [-4.371138828673793e-8, 0, 1, 0],
      "translation": [
        0.24453005194664001, -0.6809056997299194, -0.021210694685578346
      ]
    },
    {
      "name": "feet.R",
      "rotation": [-4.371138828673793e-8, 0, 1, 0],
      "translation": [
        -0.24453005194664001, -0.6809056997299194, -0.021210694685578346
      ]
    },
    {
      "children": [0, 1, 2, 3, 4, 5],
      "name": "body",
      "rotation": [0.7071068286895752, 0, 0, 0.7071068286895752],
      "translation": [
        -1.2108189073723434e-16, -0.02121073007583618, 1.0262662172317505
      ]
    },
    {
      "children": [6],
      "name": "root",
      "rotation": [-0.7071068286895752, 0, 0, 0.7071068286895752],
      "scale": [1, 0.9999999403953552, 1]
    },
    {
      "mesh": 0,
      "name": "SnowOwl",
      "skin": 0
    },
    {
      "children": [8, 7],
      "name": "Rig"
    }
  ],
  "materials": [
    {
      "doubleSided": true,
      "name": "M_SnowOwl",
      "pbrMetallicRoughness": {
        "baseColorTexture": {
          "index": 0
        },
        "metallicFactor": 0,
        "roughnessFactor": 0.5
      }
    }
  ],
  "meshes": [
    {
      "extras": {
        "targetNames": [
          "eyes.blink",
          "eyes.happy",
          "eyes.sad",
          "eyes.sleep",
          "eyes.annoyed",
          "eyes.squint",
          "eyes.shrink",
          "eyes.dead",
          "eyes.lookOut",
          "eyes.lookIn",
          "eyes.lookUp",
          "eyes.lookDown",
          "eyes.excited-1",
          "eyes.excited-2",
          "eyes.rabid",
          "eyes.spin-1",
          "eyes.spin-2",
          "eyes.spin-3",
          "eyes.cry-1",
          "eyes.cry-2",
          "eyes.trauma",
          "teardrop-1.L",
          "teardrop-2.L",
          "sweat-1.L",
          "sweat-2.L",
          "teardrop-1.R",
          "teardrop-2.R",
          "sweat-1.R",
          "sweat-2.R"
        ]
      },
      "name": "SnowOwl_LOD1",
      "primitives": [
        {
          "attributes": {
            "POSITION": 0,
            "NORMAL": 1,
            "TEXCOORD_0": 2,
            "JOINTS_0": 3,
            "WEIGHTS_0": 4
          },
          "indices": 5,
          "material": 0,
          "targets": [
            {
              "POSITION": 6,
              "NORMAL": 7
            },
            {
              "POSITION": 8,
              "NORMAL": 9
            },
            {
              "POSITION": 10,
              "NORMAL": 11
            },
            {
              "POSITION": 12,
              "NORMAL": 13
            },
            {
              "POSITION": 14,
              "NORMAL": 15
            },
            {
              "POSITION": 16,
              "NORMAL": 17
            },
            {
              "POSITION": 18,
              "NORMAL": 19
            },
            {
              "POSITION": 20,
              "NORMAL": 21
            },
            {
              "POSITION": 22,
              "NORMAL": 23
            },
            {
              "POSITION": 24,
              "NORMAL": 25
            },
            {
              "POSITION": 26,
              "NORMAL": 27
            },
            {
              "POSITION": 28,
              "NORMAL": 29
            },
            {
              "POSITION": 30,
              "NORMAL": 31
            },
            {
              "POSITION": 32,
              "NORMAL": 33
            },
            {
              "POSITION": 34,
              "NORMAL": 35
            },
            {
              "POSITION": 36,
              "NORMAL": 37
            },
            {
              "POSITION": 38,
              "NORMAL": 39
            },
            {
              "POSITION": 40,
              "NORMAL": 41
            },
            {
              "POSITION": 42,
              "NORMAL": 43
            },
            {
              "POSITION": 44,
              "NORMAL": 45
            },
            {
              "POSITION": 46,
              "NORMAL": 47
            },
            {
              "POSITION": 48,
              "NORMAL": 49
            },
            {
              "POSITION": 50,
              "NORMAL": 51
            },
            {
              "POSITION": 52,
              "NORMAL": 53
            },
            {
              "POSITION": 54,
              "NORMAL": 55
            },
            {
              "POSITION": 56,
              "NORMAL": 57
            },
            {
              "POSITION": 58,
              "NORMAL": 59
            },
            {
              "POSITION": 60,
              "NORMAL": 61
            },
            {
              "POSITION": 62,
              "NORMAL": 63
            }
          ]
        }
      ],
      "weights": [
        0, 0, 0, 0, 0, 0, 0, 0, 0, 0, 0, 0, 0, 0, 0, 0, 0, 0, 0, 0, 0, 0, 0, 0,
        0, 0, 0, 0, 0
      ]
    }
  ],
  "textures": [
    {
      "sampler": 0,
      "source": 0
    }
  ],
  "images": [
    {
      "bufferView": 6,
      "mimeType": "image/png",
      "name": "T_SnowOwl"
    }
  ],
  "skins": [
    {
      "inverseBindMatrices": 64,
      "joints": [7, 6, 0, 1, 2, 3, 4, 5],
      "name": "Rig"
    }
  ],
  "accessors": [
    {
      "bufferView": 0,
      "componentType": 5126,
      "count": 1333,
      "max": [0.8254618644714355, 1.9267219305038452, 0.6399554014205933],
      "min": [-0.8254618644714355, 0, -0.7080679535865784],
      "type": "VEC3"
    },
    {
      "bufferView": 1,
      "componentType": 5126,
      "count": 1333,
      "type": "VEC3"
    },
    {
      "bufferView": 2,
      "componentType": 5126,
      "count": 1333,
      "type": "VEC2"
    },
    {
      "bufferView": 3,
      "componentType": 5121,
      "count": 1333,
      "type": "VEC4"
    },
    {
      "bufferView": 4,
      "componentType": 5126,
      "count": 1333,
      "type": "VEC4"
    },
    {
      "bufferView": 5,
      "componentType": 5123,
      "count": 7266,
      "type": "SCALAR"
    },
    {
      "bufferView": 7,
      "componentType": 5126,
      "count": 1333,
      "max": [0.011332690715789795, 0.06276452541351318, 0.005641162395477295],
      "min": [
        -0.011332690715789795, -0.08203530311584473, -0.006319105625152588
      ],
      "type": "VEC3"
    },
    {
      "bufferView": 8,
      "componentType": 5126,
      "count": 1333,
      "type": "VEC3"
    },
    {
      "bufferView": 9,
      "componentType": 5126,
      "count": 1333,
      "max": [0.023716852068901062, 0.12439906597137451, 0.0008315443992614746],
      "min": [
        -0.023716852068901062, -0.011805176734924316, -0.011565983295440674
      ],
      "type": "VEC3"
    },
    {
      "bufferView": 10,
      "componentType": 5126,
      "count": 1333,
      "type": "VEC3"
    },
    {
      "bufferView": 11,
      "componentType": 5126,
      "count": 1333,
      "max": [0.013869255781173706, 0.015503287315368652, 0.009874582290649414],
      "min": [
        -0.013869255781173706, -0.11293661594390869, -0.001326441764831543
      ],
      "type": "VEC3"
    },
    {
      "bufferView": 12,
      "componentType": 5126,
      "count": 1333,
      "type": "VEC3"
    },
    {
      "bufferView": 13,
      "componentType": 5126,
      "count": 1333,
      "max": [0.013869255781173706, 0.015503287315368652, 0.009874582290649414],
      "min": [
        -0.013869255781173706, -0.11293661594390869, -0.001326441764831543
      ],
      "type": "VEC3"
    },
    {
      "bufferView": 14,
      "componentType": 5126,
      "count": 1333,
      "type": "VEC3"
    },
    {
      "bufferView": 15,
      "componentType": 5126,
      "count": 1333,
      "max": [
        0.006128132343292236, 0.006890416145324707, 0.0035355687141418457
      ],
      "min": [
        -0.006128132343292236, -0.0501941442489624, -0.00048536062240600586
      ],
      "type": "VEC3"
    },
    {
      "bufferView": 16,
      "componentType": 5126,
      "count": 1333,
      "type": "VEC3"
    },
    {
      "bufferView": 17,
      "componentType": 5126,
      "count": 1333,
      "max": [0.13444773852825165, 0.039972901344299316, 0.037246376276016235],
      "min": [
        -0.13444773852825165, -0.040787458419799805, -0.019283413887023926
      ],
      "type": "VEC3"
    },
    {
      "bufferView": 18,
      "componentType": 5126,
      "count": 1333,
      "type": "VEC3"
    },
    {
      "bufferView": 19,
      "componentType": 5126,
      "count": 1333,
      "max": [0.06553514301776886, 0.06715452671051025, 0.017140626907348633],
      "min": [
        -0.06553514301776886, -0.06708419322967529, -0.016139447689056396
      ],
      "type": "VEC3"
    },
    {
      "bufferView": 20,
      "componentType": 5126,
      "count": 1333,
      "type": "VEC3"
    },
    {
      "bufferView": 21,
      "componentType": 5126,
      "count": 1333,
      "max": [0.08070310950279236, 0.08587336540222168, 0.020130634307861328],
      "min": [-0.08070310950279236, -0.0807032585144043, -0.020493656396865845],
      "type": "VEC3"
    },
    {
      "bufferView": 22,
      "componentType": 5126,
      "count": 1333,
      "type": "VEC3"
    },
    {
      "bufferView": 23,
      "componentType": 5126,
      "count": 1333,
      "max": [0.05451960861682892, 0.009107828140258789, 0],
      "min": [
        -0.05451960861682892, -0.013096094131469727, -0.014670312404632568
      ],
      "type": "VEC3"
    },
    {
      "bufferView": 24,
      "componentType": 5126,
      "count": 1333,
      "type": "VEC3"
    },
    {
      "bufferView": 25,
      "componentType": 5126,
      "count": 1333,
      "max": [0.05309823155403137, 0.010926485061645508, 0.014673054218292236],
      "min": [-0.05309823155403137, -0.011277437210083008, 0],
      "type": "VEC3"
    },
    {
      "bufferView": 26,
      "componentType": 5126,
      "count": 1333,
      "type": "VEC3"
    },
    {
      "bufferView": 27,
      "componentType": 5126,
      "count": 1333,
      "max": [0.011654913425445557, 0.05531108379364014, 0],
      "min": [-0.011654913425445557, 0, -0.005934417247772217],
      "type": "VEC3"
    },
    {
      "bufferView": 28,
      "componentType": 5126,
      "count": 1333,
      "type": "VEC3"
    },
    {
      "bufferView": 29,
      "componentType": 5126,
      "count": 1333,
      "max": [0.011512652039527893, 0, 0.005845516920089722],
      "min": [-0.011512652039527893, -0.05662035942077637, 0],
      "type": "VEC3"
    },
    {
      "bufferView": 30,
      "componentType": 5126,
      "count": 1333,
      "type": "VEC3"
    },
    {
      "bufferView": 31,
      "componentType": 5126,
      "count": 1333,
      "max": [
        0.024961650371551514, 0.0037360191345214844, 0.0030667781829833984
      ],
      "min": [
        -0.024961650371551514, -0.027097702026367188, -0.013482630252838135
      ],
      "type": "VEC3"
    },
    {
      "bufferView": 32,
      "componentType": 5126,
      "count": 1333,
      "type": "VEC3"
    },
    {
      "bufferView": 33,
      "componentType": 5126,
      "count": 1333,
      "max": [0.023150503635406494, 0.026866793632507324, 0],
      "min": [
        -0.023150503635406494, -0.003966927528381348, -0.019665181636810303
      ],
      "type": "VEC3"
    },
    {
      "bufferView": 34,
      "componentType": 5126,
      "count": 1333,
      "type": "VEC3"
    },
    {
      "bufferView": 35,
      "componentType": 5126,
      "count": 1333,
      "max": [0.07593093812465668, 0.004285931587219238, 0.021091312170028687],
      "min": [-0.07593093812465668, -0.007060408592224121, -0.0210912823677063],
      "type": "VEC3"
    },
    {
      "bufferView": 36,
      "componentType": 5126,
      "count": 1333,
      "type": "VEC3"
    },
    {
      "bufferView": 37,
      "componentType": 5126,
      "count": 1333,
      "max": [0.03938904404640198, 0.043241143226623535, 0.006004214286804199],
      "min": [-0.03938904404640198, -0.01720559597015381, -0.05665314197540283],
      "type": "VEC3"
    },
    {
      "bufferView": 38,
      "componentType": 5126,
      "count": 1333,
      "type": "VEC3"
    },
    {
      "bufferView": 39,
      "componentType": 5126,
      "count": 1333,
      "max": [0.17670559883117676, 0.20404911041259766, 0.049791038036346436],
      "min": [-0.17670559883117676, -0.16648006439208984, -0.06427779793739319],
      "type": "VEC3"
    },
    {
      "bufferView": 40,
      "componentType": 5126,
      "count": 1333,
      "type": "VEC3"
    },
    {
      "bufferView": 41,
      "componentType": 5126,
      "count": 1333,
      "max": [0.16553789377212524, 0.1736530065536499, 0.04125890135765076],
      "min": [-0.16553789377212524, -0.1752617359161377, -0.05450353026390076],
      "type": "VEC3"
    },
    {
      "bufferView": 42,
      "componentType": 5126,
      "count": 1333,
      "type": "VEC3"
    },
    {
      "bufferView": 43,
      "componentType": 5126,
      "count": 1333,
      "max": [0.03734976053237915, 0.04931080341339111, 0.06828951835632324],
      "min": [-0.03734976053237915, -0.1959850788116455, -0.006627976894378662],
      "type": "VEC3"
    },
    {
      "bufferView": 44,
      "componentType": 5126,
      "count": 1333,
      "type": "VEC3"
    },
    {
      "bufferView": 45,
      "componentType": 5126,
      "count": 1333,
      "max": [0.03733241558074951, 0.04931080341339111, 0.07157272100448608],
      "min": [
        -0.03733241558074951, -0.24530541896820068, -0.006627976894378662
      ],
      "type": "VEC3"
    },
    {
      "bufferView": 46,
      "componentType": 5126,
      "count": 1333,
      "type": "VEC3"
    },
    {
      "bufferView": 47,
      "componentType": 5126,
      "count": 1333,
      "max": [0.11488211154937744, 0.10356581211090088, 0.09193700551986694],
      "min": [-0.11488211154937744, -0.22284770011901855, -0.0941479504108429],
      "type": "VEC3"
    },
    {
      "bufferView": 48,
      "componentType": 5126,
      "count": 1333,
      "type": "VEC3"
    },
    {
      "bufferView": 49,
      "componentType": 5126,
      "count": 1333,
      "max": [0.15017199516296387, 0, 0.10637301206588745],
      "min": [0, -0.30942094326019287, 0],
      "type": "VEC3"
    },
    {
      "bufferView": 50,
      "componentType": 5126,
      "count": 1333,
      "type": "VEC3"
    },
    {
      "bufferView": 51,
      "componentType": 5126,
      "count": 1333,
      "max": [0.15000540018081665, 0, 0.11377418041229248],
      "min": [0, -0.4144936800003052, 0],
      "type": "VEC3"
    },
    {
      "bufferView": 52,
      "componentType": 5126,
      "count": 1333,
      "type": "VEC3"
    },
    {
      "bufferView": 53,
      "componentType": 5126,
      "count": 1333,
      "max": [0.14424258470535278, 0.5073075294494629, 0.061481982469558716],
      "min": [0, 0, -0.0706053078174591],
      "type": "VEC3"
    },
    {
      "bufferView": 54,
      "componentType": 5126,
      "count": 1333,
      "type": "VEC3"
    },
    {
      "bufferView": 55,
      "componentType": 5126,
      "count": 1333,
      "max": [0.1440737545490265, 0.4008338451385498, 0.06898185610771179],
      "min": [0, 0, -0.06310543417930603],
      "type": "VEC3"
    },
    {
      "bufferView": 56,
      "componentType": 5126,
      "count": 1333,
      "type": "VEC3"
    },
    {
      "bufferView": 57,
      "componentType": 5126,
      "count": 1333,
      "max": [0, 0, 0.10637301206588745],
      "min": [-0.15017199516296387, -0.30942094326019287, 0],
      "type": "VEC3"
    },
    {
      "bufferView": 58,
      "componentType": 5126,
      "count": 1333,
      "type": "VEC3"
    },
    {
      "bufferView": 59,
      "componentType": 5126,
      "count": 1333,
      "max": [0, 0, 0.11377418041229248],
      "min": [-0.15000540018081665, -0.4144936800003052, 0],
      "type": "VEC3"
    },
    {
      "bufferView": 60,
      "componentType": 5126,
      "count": 1333,
      "type": "VEC3"
    },
    {
      "bufferView": 61,
      "componentType": 5126,
      "count": 1333,
      "max": [0, 0.5073075294494629, 0.061481982469558716],
      "min": [-0.14424258470535278, 0, -0.0706053078174591],
      "type": "VEC3"
    },
    {
      "bufferView": 62,
      "componentType": 5126,
      "count": 1333,
      "type": "VEC3"
    },
    {
      "bufferView": 63,
      "componentType": 5126,
      "count": 1333,
      "max": [0, 0.4008338451385498, 0.06898185610771179],
      "min": [-0.1440737545490265, 0, -0.06310543417930603],
      "type": "VEC3"
    },
    {
      "bufferView": 64,
      "componentType": 5126,
      "count": 1333,
      "type": "VEC3"
    },
    {
      "bufferView": 65,
      "componentType": 5126,
      "count": 8,
      "type": "MAT4"
    }
  ],
  "bufferViews": [
    {
      "buffer": 0,
      "byteLength": 15996,
      "byteOffset": 0
    },
    {
      "buffer": 0,
      "byteLength": 15996,
      "byteOffset": 15996
    },
    {
      "buffer": 0,
      "byteLength": 10664,
      "byteOffset": 31992
    },
    {
      "buffer": 0,
      "byteLength": 5332,
      "byteOffset": 42656
    },
    {
      "buffer": 0,
      "byteLength": 21328,
      "byteOffset": 47988
    },
    {
      "buffer": 0,
      "byteLength": 14532,
      "byteOffset": 69316
    },
    {
      "buffer": 0,
      "byteLength": 131,
      "byteOffset": 83848
    },
    {
      "buffer": 0,
      "byteLength": 15996,
      "byteOffset": 83980
    },
    {
      "buffer": 0,
      "byteLength": 15996,
      "byteOffset": 99976
    },
    {
      "buffer": 0,
      "byteLength": 15996,
      "byteOffset": 115972
    },
    {
      "buffer": 0,
      "byteLength": 15996,
      "byteOffset": 131968
    },
    {
      "buffer": 0,
      "byteLength": 15996,
      "byteOffset": 147964
    },
    {
      "buffer": 0,
      "byteLength": 15996,
      "byteOffset": 163960
    },
    {
      "buffer": 0,
      "byteLength": 15996,
      "byteOffset": 179956
    },
    {
      "buffer": 0,
      "byteLength": 15996,
      "byteOffset": 195952
    },
    {
      "buffer": 0,
      "byteLength": 15996,
      "byteOffset": 211948
    },
    {
      "buffer": 0,
      "byteLength": 15996,
      "byteOffset": 227944
    },
    {
      "buffer": 0,
      "byteLength": 15996,
      "byteOffset": 243940
    },
    {
      "buffer": 0,
      "byteLength": 15996,
      "byteOffset": 259936
    },
    {
      "buffer": 0,
      "byteLength": 15996,
      "byteOffset": 275932
    },
    {
      "buffer": 0,
      "byteLength": 15996,
      "byteOffset": 291928
    },
    {
      "buffer": 0,
      "byteLength": 15996,
      "byteOffset": 307924
    },
    {
      "buffer": 0,
      "byteLength": 15996,
      "byteOffset": 323920
    },
    {
      "buffer": 0,
      "byteLength": 15996,
      "byteOffset": 339916
    },
    {
      "buffer": 0,
      "byteLength": 15996,
      "byteOffset": 355912
    },
    {
      "buffer": 0,
      "byteLength": 15996,
      "byteOffset": 371908
    },
    {
      "buffer": 0,
      "byteLength": 15996,
      "byteOffset": 387904
    },
    {
      "buffer": 0,
      "byteLength": 15996,
      "byteOffset": 403900
    },
    {
      "buffer": 0,
      "byteLength": 15996,
      "byteOffset": 419896
    },
    {
      "buffer": 0,
      "byteLength": 15996,
      "byteOffset": 435892
    },
    {
      "buffer": 0,
      "byteLength": 15996,
      "byteOffset": 451888
    },
    {
      "buffer": 0,
      "byteLength": 15996,
      "byteOffset": 467884
    },
    {
      "buffer": 0,
      "byteLength": 15996,
      "byteOffset": 483880
    },
    {
      "buffer": 0,
      "byteLength": 15996,
      "byteOffset": 499876
    },
    {
      "buffer": 0,
      "byteLength": 15996,
      "byteOffset": 515872
    },
    {
      "buffer": 0,
      "byteLength": 15996,
      "byteOffset": 531868
    },
    {
      "buffer": 0,
      "byteLength": 15996,
      "byteOffset": 547864
    },
    {
      "buffer": 0,
      "byteLength": 15996,
      "byteOffset": 563860
    },
    {
      "buffer": 0,
      "byteLength": 15996,
      "byteOffset": 579856
    },
    {
      "buffer": 0,
      "byteLength": 15996,
      "byteOffset": 595852
    },
    {
      "buffer": 0,
      "byteLength": 15996,
      "byteOffset": 611848
    },
    {
      "buffer": 0,
      "byteLength": 15996,
      "byteOffset": 627844
    },
    {
      "buffer": 0,
      "byteLength": 15996,
      "byteOffset": 643840
    },
    {
      "buffer": 0,
      "byteLength": 15996,
      "byteOffset": 659836
    },
    {
      "buffer": 0,
      "byteLength": 15996,
      "byteOffset": 675832
    },
    {
      "buffer": 0,
      "byteLength": 15996,
      "byteOffset": 691828
    },
    {
      "buffer": 0,
      "byteLength": 15996,
      "byteOffset": 707824
    },
    {
      "buffer": 0,
      "byteLength": 15996,
      "byteOffset": 723820
    },
    {
      "buffer": 0,
      "byteLength": 15996,
      "byteOffset": 739816
    },
    {
      "buffer": 0,
      "byteLength": 15996,
      "byteOffset": 755812
    },
    {
      "buffer": 0,
      "byteLength": 15996,
      "byteOffset": 771808
    },
    {
      "buffer": 0,
      "byteLength": 15996,
      "byteOffset": 787804
    },
    {
      "buffer": 0,
      "byteLength": 15996,
      "byteOffset": 803800
    },
    {
      "buffer": 0,
      "byteLength": 15996,
      "byteOffset": 819796
    },
    {
      "buffer": 0,
      "byteLength": 15996,
      "byteOffset": 835792
    },
    {
      "buffer": 0,
      "byteLength": 15996,
      "byteOffset": 851788
    },
    {
      "buffer": 0,
      "byteLength": 15996,
      "byteOffset": 867784
    },
    {
      "buffer": 0,
      "byteLength": 15996,
      "byteOffset": 883780
    },
    {
      "buffer": 0,
      "byteLength": 15996,
      "byteOffset": 899776
    },
    {
      "buffer": 0,
      "byteLength": 15996,
      "byteOffset": 915772
    },
    {
      "buffer": 0,
      "byteLength": 15996,
      "byteOffset": 931768
    },
    {
      "buffer": 0,
      "byteLength": 15996,
      "byteOffset": 947764
    },
    {
      "buffer": 0,
      "byteLength": 15996,
      "byteOffset": 963760
    },
    {
      "buffer": 0,
      "byteLength": 15996,
      "byteOffset": 979756
    },
    {
      "buffer": 0,
      "byteLength": 15996,
      "byteOffset": 995752
    },
    {
      "buffer": 0,
      "byteLength": 512,
      "byteOffset": 1011748
    }
  ],
  "samplers": [
    {
      "magFilter": 9729,
      "minFilter": 9987
    }
  ],
  "buffers": [
    {
      "byteLength": 1012260,
      "uri": "data:application/octet-stream;base64,"
    }
  ]
}
