{
  "asset": {
    "copyright": "Copyright 2020 Omabuarts Studio. For more info, visit https://omabuarts.com/license",
    "generator": "Khronos glTF Blender I/O v1.6.16",
    "version": "2.0"
  },
  "scene": 0,
  "scenes": [
    {
      "name": "Scene",
      "nodes": [9]
    }
  ],
  "nodes": [
    {
      "name": "wing.L",
      "rotation": [
        -0.00634123245254159, 0.24987958371639252, -0.9671568870544434,
        0.046127427369356155
      ],
      "scale": [0.9999999403953552, 1, 1.0000001192092896],
      "translation": [
        0.6191527247428894, -0.07751679420471191, 0.0317707359790802
      ]
    },
    {
      "name": "wing.R",
      "rotation": [
        -0.00634123245254159, -0.24987958371639252, 0.9671568870544434,
        0.046127427369356155
      ],
      "scale": [0.9999999403953552, 1, 1.0000001192092896],
      "translation": [
        -0.6191527247428894, -0.07751679420471191, 0.0317707359790802
      ]
    },
    {
      "name": "tail.01",
      "rotation": [
        -7.285447622962238e-8, 0.2622983455657959, -0.9649868607521057,
        1.980298236503586e-8
      ],
      "scale": [1, 0.9999996423721313, 0.9999993443489075],
      "translation": [
        1.716845125089331e-16, -0.37088972330093384, -0.42864683270454407
      ]
    },
    {
      "name": "tail.02",
      "rotation": [
        -7.266114465664941e-8, 0.27154409885406494, -0.9624260067939758,
        2.0501010666862385e-8
      ],
      "translation": [
        1.4244317492937114e-16, -0.5153664350509644, -0.3770243227481842
      ]
    },
    {
      "name": "feet.L",
      "rotation": [-4.371138828673793e-8, 0, 1, 0],
      "translation": [
        0.24453005194664001, -0.6809056997299194, -0.021210694685578346
      ]
    },
    {
      "name": "feet.R",
      "rotation": [-4.371138828673793e-8, 0, 1, 0],
      "translation": [
        -0.24453005194664001, -0.6809056997299194, -0.021210694685578346
      ]
    },
    {
      "children": [0, 1, 2, 3, 4, 5],
      "name": "body",
      "rotation": [0.7071068286895752, 0, 0, 0.7071068286895752],
      "translation": [
        -1.2108189073723434e-16, -0.02121073007583618, 1.0262662172317505
      ]
    },
    {
      "children": [6],
      "name": "root",
      "rotation": [-0.7071068286895752, 0, 0, 0.7071068286895752],
      "scale": [1, 0.9999999403953552, 1]
    },
    {
      "mesh": 0,
      "name": "SnowOwl",
      "skin": 0
    },
    {
      "children": [8, 7],
      "name": "Rig"
    }
  ],
  "materials": [
    {
      "doubleSided": true,
      "name": "M_SnowOwl",
      "pbrMetallicRoughness": {
        "baseColorTexture": {
          "index": 0
        },
        "metallicFactor": 0,
        "roughnessFactor": 0.5
      }
    }
  ],
  "meshes": [
    {
      "extras": {
        "targetNames": [
          "eyes.blink",
          "eyes.happy",
          "eyes.sad",
          "eyes.sleep",
          "eyes.annoyed",
          "eyes.squint",
          "eyes.shrink",
          "eyes.dead",
          "eyes.lookOut",
          "eyes.lookIn",
          "eyes.lookUp",
          "eyes.lookDown",
          "eyes.excited-1",
          "eyes.excited-2",
          "eyes.rabid",
          "eyes.spin-1",
          "eyes.spin-2",
          "eyes.spin-3",
          "eyes.cry-1",
          "eyes.cry-2",
          "eyes.trauma",
          "teardrop-1.L",
          "teardrop-2.L",
          "sweat-1.L",
          "sweat-2.L",
          "teardrop-1.R",
          "teardrop-2.R",
          "sweat-1.R",
          "sweat-2.R"
        ]
      },
      "name": "SnowOwl_LOD3",
      "primitives": [
        {
          "attributes": {
            "POSITION": 0,
            "NORMAL": 1,
            "TEXCOORD_0": 2,
            "JOINTS_0": 3,
            "WEIGHTS_0": 4
          },
          "indices": 5,
          "material": 0,
          "targets": [
            {
              "POSITION": 6,
              "NORMAL": 7
            },
            {
              "POSITION": 8,
              "NORMAL": 9
            },
            {
              "POSITION": 10,
              "NORMAL": 11
            },
            {
              "POSITION": 12,
              "NORMAL": 13
            },
            {
              "POSITION": 14,
              "NORMAL": 15
            },
            {
              "POSITION": 16,
              "NORMAL": 17
            },
            {
              "POSITION": 18,
              "NORMAL": 19
            },
            {
              "POSITION": 20,
              "NORMAL": 21
            },
            {
              "POSITION": 22,
              "NORMAL": 23
            },
            {
              "POSITION": 24,
              "NORMAL": 25
            },
            {
              "POSITION": 26,
              "NORMAL": 27
            },
            {
              "POSITION": 28,
              "NORMAL": 29
            },
            {
              "POSITION": 30,
              "NORMAL": 31
            },
            {
              "POSITION": 32,
              "NORMAL": 33
            },
            {
              "POSITION": 34,
              "NORMAL": 35
            },
            {
              "POSITION": 36,
              "NORMAL": 37
            },
            {
              "POSITION": 38,
              "NORMAL": 39
            },
            {
              "POSITION": 40,
              "NORMAL": 41
            },
            {
              "POSITION": 42,
              "NORMAL": 43
            },
            {
              "POSITION": 44,
              "NORMAL": 45
            },
            {
              "POSITION": 46,
              "NORMAL": 47
            },
            {
              "POSITION": 48,
              "NORMAL": 49
            },
            {
              "POSITION": 50,
              "NORMAL": 51
            },
            {
              "POSITION": 52,
              "NORMAL": 53
            },
            {
              "POSITION": 54,
              "NORMAL": 55
            },
            {
              "POSITION": 56,
              "NORMAL": 57
            },
            {
              "POSITION": 58,
              "NORMAL": 59
            },
            {
              "POSITION": 60,
              "NORMAL": 61
            },
            {
              "POSITION": 62,
              "NORMAL": 63
            }
          ]
        }
      ],
      "weights": [
        0, 0, 0, 0, 0, 0, 0, 0, 0, 0, 0, 0, 0, 0, 0, 0, 0, 0, 0, 0, 0, 0, 0, 0,
        0, 0, 0, 0, 0
      ]
    }
  ],
  "textures": [
    {
      "sampler": 0,
      "source": 0
    }
  ],
  "images": [
    {
      "bufferView": 6,
      "mimeType": "image/png",
      "name": "T_SnowOwl"
    }
  ],
  "skins": [
    {
      "inverseBindMatrices": 64,
      "joints": [7, 6, 0, 1, 2, 3, 4, 5],
      "name": "Rig"
    }
  ],
  "accessors": [
    {
      "bufferView": 0,
      "componentType": 5126,
      "count": 473,
      "max": [0.8254618644714355, 1.933260202407837, 0.6399554014205933],
      "min": [-0.8254618644714355, 0, -0.7134591341018677],
      "type": "VEC3"
    },
    {
      "bufferView": 1,
      "componentType": 5126,
      "count": 473,
      "type": "VEC3"
    },
    {
      "bufferView": 2,
      "componentType": 5126,
      "count": 473,
      "type": "VEC2"
    },
    {
      "bufferView": 3,
      "componentType": 5121,
      "count": 473,
      "type": "VEC4"
    },
    {
      "bufferView": 4,
      "componentType": 5126,
      "count": 473,
      "type": "VEC4"
    },
    {
      "bufferView": 5,
      "componentType": 5123,
      "count": 2118,
      "type": "SCALAR"
    },
    {
      "bufferView": 7,
      "componentType": 5126,
      "count": 473,
      "max": [0.011332690715789795, 0.06276452541351318, 0.005641162395477295],
      "min": [
        -0.011332690715789795, -0.08203530311584473, -0.0047414302825927734
      ],
      "type": "VEC3"
    },
    {
      "bufferView": 8,
      "componentType": 5126,
      "count": 473,
      "type": "VEC3"
    },
    {
      "bufferView": 9,
      "componentType": 5126,
      "count": 473,
      "max": [0.023716852068901062, 0.12439906597137451, 0.0008315443992614746],
      "min": [
        -0.023716852068901062, -0.011805176734924316, -0.011250853538513184
      ],
      "type": "VEC3"
    },
    {
      "bufferView": 10,
      "componentType": 5126,
      "count": 473,
      "type": "VEC3"
    },
    {
      "bufferView": 11,
      "componentType": 5126,
      "count": 473,
      "max": [0.013869255781173706, 0.015503287315368652, 0.007955074310302734],
      "min": [
        -0.013869255781173706, -0.11293661594390869, -0.001326441764831543
      ],
      "type": "VEC3"
    },
    {
      "bufferView": 12,
      "componentType": 5126,
      "count": 473,
      "type": "VEC3"
    },
    {
      "bufferView": 13,
      "componentType": 5126,
      "count": 473,
      "max": [0.013869255781173706, 0.015503287315368652, 0.007955074310302734],
      "min": [
        -0.013869255781173706, -0.11293661594390869, -0.001326441764831543
      ],
      "type": "VEC3"
    },
    {
      "bufferView": 14,
      "componentType": 5126,
      "count": 473,
      "type": "VEC3"
    },
    {
      "bufferView": 15,
      "componentType": 5126,
      "count": 473,
      "max": [0.019096389412879944, 0.019678473472595215, 0.005696773529052734],
      "min": [
        -0.019096389412879944, -0.05760049819946289, -0.0005573630332946777
      ],
      "type": "VEC3"
    },
    {
      "bufferView": 16,
      "componentType": 5126,
      "count": 473,
      "type": "VEC3"
    },
    {
      "bufferView": 17,
      "componentType": 5126,
      "count": 473,
      "max": [0.13444773852825165, 0.039972901344299316, 0.037246376276016235],
      "min": [
        -0.13444773852825165, -0.040787458419799805, -0.019283413887023926
      ],
      "type": "VEC3"
    },
    {
      "bufferView": 18,
      "componentType": 5126,
      "count": 473,
      "type": "VEC3"
    },
    {
      "bufferView": 19,
      "componentType": 5126,
      "count": 473,
      "max": [0.06553514301776886, 0.06715452671051025, 0.01641342043876648],
      "min": [
        -0.06553514301776886, -0.06708419322967529, -0.015411972999572754
      ],
      "type": "VEC3"
    },
    {
      "bufferView": 20,
      "componentType": 5126,
      "count": 473,
      "type": "VEC3"
    },
    {
      "bufferView": 21,
      "componentType": 5126,
      "count": 473,
      "max": [0.07096579670906067, 0.07547521591186523, 0.01744014024734497],
      "min": [-0.07096579670906067, -0.0703052282333374, -0.017803311347961426],
      "type": "VEC3"
    },
    {
      "bufferView": 22,
      "componentType": 5126,
      "count": 473,
      "type": "VEC3"
    },
    {
      "bufferView": 23,
      "componentType": 5126,
      "count": 473,
      "max": [0.05451960861682892, 0.009107828140258789, 0],
      "min": [
        -0.05451960861682892, -0.013096094131469727, -0.014572501182556152
      ],
      "type": "VEC3"
    },
    {
      "bufferView": 24,
      "componentType": 5126,
      "count": 473,
      "type": "VEC3"
    },
    {
      "bufferView": 25,
      "componentType": 5126,
      "count": 473,
      "max": [0.05309823155403137, 0.010926485061645508, 0.014575332403182983],
      "min": [-0.05309823155403137, -0.011277437210083008, 0],
      "type": "VEC3"
    },
    {
      "bufferView": 26,
      "componentType": 5126,
      "count": 473,
      "type": "VEC3"
    },
    {
      "bufferView": 27,
      "componentType": 5126,
      "count": 473,
      "max": [0.011654913425445557, 0.05531108379364014, 0],
      "min": [-0.011654913425445557, 0, -0.005836606025695801],
      "type": "VEC3"
    },
    {
      "bufferView": 28,
      "componentType": 5126,
      "count": 473,
      "type": "VEC3"
    },
    {
      "bufferView": 29,
      "componentType": 5126,
      "count": 473,
      "max": [0.011512652039527893, 0, 0.0057478249073028564],
      "min": [-0.011512652039527893, -0.05662035942077637, 0],
      "type": "VEC3"
    },
    {
      "bufferView": 30,
      "componentType": 5126,
      "count": 473,
      "type": "VEC3"
    },
    {
      "bufferView": 31,
      "componentType": 5126,
      "count": 473,
      "max": [0.022824883460998535, 0.024425148963928223, 0],
      "min": [
        -0.022824883460998535, -0.006408572196960449, -0.019338756799697876
      ],
      "type": "VEC3"
    },
    {
      "bufferView": 32,
      "componentType": 5126,
      "count": 473,
      "type": "VEC3"
    },
    {
      "bufferView": 33,
      "componentType": 5126,
      "count": 473,
      "max": [0.02529895305633545, 0.004444003105163574, 0.003111422061920166],
      "min": [
        -0.02529895305633545, -0.026389718055725098, -0.013437986373901367
      ],
      "type": "VEC3"
    },
    {
      "bufferView": 34,
      "componentType": 5126,
      "count": 473,
      "type": "VEC3"
    },
    {
      "bufferView": 35,
      "componentType": 5126,
      "count": 473,
      "max": [0.07593093812465668, 0.0017380714416503906, 0.021091312170028687],
      "min": [
        -0.07593093812465668, -0.0017379522323608398, -0.0210912823677063
      ],
      "type": "VEC3"
    },
    {
      "bufferView": 36,
      "componentType": 5126,
      "count": 473,
      "type": "VEC3"
    },
    {
      "bufferView": 37,
      "componentType": 5126,
      "count": 473,
      "max": [0.025766566395759583, 0.019896507263183594, 0.005666077136993408],
      "min": [
        -0.025766566395759583, -0.026912331581115723, -0.04217955470085144
      ],
      "type": "VEC3"
    },
    {
      "bufferView": 38,
      "componentType": 5126,
      "count": 473,
      "type": "VEC3"
    },
    {
      "bufferView": 39,
      "componentType": 5126,
      "count": 473,
      "max": [0.1684322953224182, 0.17799162864685059, 0.047391653060913086],
      "min": [-0.1684322953224182, -0.17820727825164795, -0.05017077922821045],
      "type": "VEC3"
    },
    {
      "bufferView": 40,
      "componentType": 5126,
      "count": 473,
      "type": "VEC3"
    },
    {
      "bufferView": 41,
      "componentType": 5126,
      "count": 473,
      "max": [0.17420142889022827, 0.1746903657913208, 0.03973469138145447],
      "min": [
        -0.17420142889022827, -0.17190921306610107, -0.049640387296676636
      ],
      "type": "VEC3"
    },
    {
      "bufferView": 42,
      "componentType": 5126,
      "count": 473,
      "type": "VEC3"
    },
    {
      "bufferView": 43,
      "componentType": 5126,
      "count": 473,
      "max": [0.04058319330215454, 0.04931080341339111, 0.07136344909667969],
      "min": [
        -0.04058319330215454, -0.21629548072814941, -0.005596518516540527
      ],
      "type": "VEC3"
    },
    {
      "bufferView": 44,
      "componentType": 5126,
      "count": 473,
      "type": "VEC3"
    },
    {
      "bufferView": 45,
      "componentType": 5126,
      "count": 473,
      "max": [0.04058319330215454, 0.04931080341339111, 0.07370328903198242],
      "min": [-0.04058319330215454, -0.2495136260986328, -0.005596518516540527],
      "type": "VEC3"
    },
    {
      "bufferView": 46,
      "componentType": 5126,
      "count": 473,
      "type": "VEC3"
    },
    {
      "bufferView": 47,
      "componentType": 5126,
      "count": 473,
      "max": [0.103552907705307, 0.10356581211090088, 0.08761537075042725],
      "min": [-0.103552907705307, -0.21053528785705566, -0.0941479504108429],
      "type": "VEC3"
    },
    {
      "bufferView": 48,
      "componentType": 5126,
      "count": 473,
      "type": "VEC3"
    },
    {
      "bufferView": 49,
      "componentType": 5126,
      "count": 473,
      "max": [0.16269350051879883, 0, 0.11354634165763855],
      "min": [0, -0.3273550271987915, 0],
      "type": "VEC3"
    },
    {
      "bufferView": 50,
      "componentType": 5126,
      "count": 473,
      "type": "VEC3"
    },
    {
      "bufferView": 51,
      "componentType": 5126,
      "count": 473,
      "max": [0.16251802444458008, 0, 0.12134221196174622],
      "min": [0, -0.4380314350128174, 0],
      "type": "VEC3"
    },
    {
      "bufferView": 52,
      "componentType": 5126,
      "count": 473,
      "type": "VEC3"
    },
    {
      "bufferView": 53,
      "componentType": 5126,
      "count": 473,
      "max": [0.1629137396812439, 0.5198559761047363, 0.06502053141593933],
      "min": [0, 0, -0.07435774803161621],
      "type": "VEC3"
    },
    {
      "bufferView": 54,
      "componentType": 5126,
      "count": 473,
      "type": "VEC3"
    },
    {
      "bufferView": 55,
      "componentType": 5126,
      "count": 473,
      "max": [0.1627560257911682, 0.42038726806640625, 0.07202699780464172],
      "min": [0, 0, -0.06735128164291382],
      "type": "VEC3"
    },
    {
      "bufferView": 56,
      "componentType": 5126,
      "count": 473,
      "type": "VEC3"
    },
    {
      "bufferView": 57,
      "componentType": 5126,
      "count": 473,
      "max": [0, 0, 0.11354634165763855],
      "min": [-0.16269350051879883, -0.3273550271987915, 0],
      "type": "VEC3"
    },
    {
      "bufferView": 58,
      "componentType": 5126,
      "count": 473,
      "type": "VEC3"
    },
    {
      "bufferView": 59,
      "componentType": 5126,
      "count": 473,
      "max": [0, 0, 0.12134221196174622],
      "min": [-0.16251802444458008, -0.4380314350128174, 0],
      "type": "VEC3"
    },
    {
      "bufferView": 60,
      "componentType": 5126,
      "count": 473,
      "type": "VEC3"
    },
    {
      "bufferView": 61,
      "componentType": 5126,
      "count": 473,
      "max": [0, 0.5198559761047363, 0.06502053141593933],
      "min": [-0.1629137396812439, 0, -0.07435774803161621],
      "type": "VEC3"
    },
    {
      "bufferView": 62,
      "componentType": 5126,
      "count": 473,
      "type": "VEC3"
    },
    {
      "bufferView": 63,
      "componentType": 5126,
      "count": 473,
      "max": [0, 0.42038726806640625, 0.07202699780464172],
      "min": [-0.1627560257911682, 0, -0.06735128164291382],
      "type": "VEC3"
    },
    {
      "bufferView": 64,
      "componentType": 5126,
      "count": 473,
      "type": "VEC3"
    },
    {
      "bufferView": 65,
      "componentType": 5126,
      "count": 8,
      "type": "MAT4"
    }
  ],
  "bufferViews": [
    {
      "buffer": 0,
      "byteLength": 5676,
      "byteOffset": 0
    },
    {
      "buffer": 0,
      "byteLength": 5676,
      "byteOffset": 5676
    },
    {
      "buffer": 0,
      "byteLength": 3784,
      "byteOffset": 11352
    },
    {
      "buffer": 0,
      "byteLength": 1892,
      "byteOffset": 15136
    },
    {
      "buffer": 0,
      "byteLength": 7568,
      "byteOffset": 17028
    },
    {
      "buffer": 0,
      "byteLength": 4236,
      "byteOffset": 24596
    },
    {
      "buffer": 0,
      "byteLength": 131,
      "byteOffset": 28832
    },
    {
      "buffer": 0,
      "byteLength": 5676,
      "byteOffset": 28964
    },
    {
      "buffer": 0,
      "byteLength": 5676,
      "byteOffset": 34640
    },
    {
      "buffer": 0,
      "byteLength": 5676,
      "byteOffset": 40316
    },
    {
      "buffer": 0,
      "byteLength": 5676,
      "byteOffset": 45992
    },
    {
      "buffer": 0,
      "byteLength": 5676,
      "byteOffset": 51668
    },
    {
      "buffer": 0,
      "byteLength": 5676,
      "byteOffset": 57344
    },
    {
      "buffer": 0,
      "byteLength": 5676,
      "byteOffset": 63020
    },
    {
      "buffer": 0,
      "byteLength": 5676,
      "byteOffset": 68696
    },
    {
      "buffer": 0,
      "byteLength": 5676,
      "byteOffset": 74372
    },
    {
      "buffer": 0,
      "byteLength": 5676,
      "byteOffset": 80048
    },
    {
      "buffer": 0,
      "byteLength": 5676,
      "byteOffset": 85724
    },
    {
      "buffer": 0,
      "byteLength": 5676,
      "byteOffset": 91400
    },
    {
      "buffer": 0,
      "byteLength": 5676,
      "byteOffset": 97076
    },
    {
      "buffer": 0,
      "byteLength": 5676,
      "byteOffset": 102752
    },
    {
      "buffer": 0,
      "byteLength": 5676,
      "byteOffset": 108428
    },
    {
      "buffer": 0,
      "byteLength": 5676,
      "byteOffset": 114104
    },
    {
      "buffer": 0,
      "byteLength": 5676,
      "byteOffset": 119780
    },
    {
      "buffer": 0,
      "byteLength": 5676,
      "byteOffset": 125456
    },
    {
      "buffer": 0,
      "byteLength": 5676,
      "byteOffset": 131132
    },
    {
      "buffer": 0,
      "byteLength": 5676,
      "byteOffset": 136808
    },
    {
      "buffer": 0,
      "byteLength": 5676,
      "byteOffset": 142484
    },
    {
      "buffer": 0,
      "byteLength": 5676,
      "byteOffset": 148160
    },
    {
      "buffer": 0,
      "byteLength": 5676,
      "byteOffset": 153836
    },
    {
      "buffer": 0,
      "byteLength": 5676,
      "byteOffset": 159512
    },
    {
      "buffer": 0,
      "byteLength": 5676,
      "byteOffset": 165188
    },
    {
      "buffer": 0,
      "byteLength": 5676,
      "byteOffset": 170864
    },
    {
      "buffer": 0,
      "byteLength": 5676,
      "byteOffset": 176540
    },
    {
      "buffer": 0,
      "byteLength": 5676,
      "byteOffset": 182216
    },
    {
      "buffer": 0,
      "byteLength": 5676,
      "byteOffset": 187892
    },
    {
      "buffer": 0,
      "byteLength": 5676,
      "byteOffset": 193568
    },
    {
      "buffer": 0,
      "byteLength": 5676,
      "byteOffset": 199244
    },
    {
      "buffer": 0,
      "byteLength": 5676,
      "byteOffset": 204920
    },
    {
      "buffer": 0,
      "byteLength": 5676,
      "byteOffset": 210596
    },
    {
      "buffer": 0,
      "byteLength": 5676,
      "byteOffset": 216272
    },
    {
      "buffer": 0,
      "byteLength": 5676,
      "byteOffset": 221948
    },
    {
      "buffer": 0,
      "byteLength": 5676,
      "byteOffset": 227624
    },
    {
      "buffer": 0,
      "byteLength": 5676,
      "byteOffset": 233300
    },
    {
      "buffer": 0,
      "byteLength": 5676,
      "byteOffset": 238976
    },
    {
      "buffer": 0,
      "byteLength": 5676,
      "byteOffset": 244652
    },
    {
      "buffer": 0,
      "byteLength": 5676,
      "byteOffset": 250328
    },
    {
      "buffer": 0,
      "byteLength": 5676,
      "byteOffset": 256004
    },
    {
      "buffer": 0,
      "byteLength": 5676,
      "byteOffset": 261680
    },
    {
      "buffer": 0,
      "byteLength": 5676,
      "byteOffset": 267356
    },
    {
      "buffer": 0,
      "byteLength": 5676,
      "byteOffset": 273032
    },
    {
      "buffer": 0,
      "byteLength": 5676,
      "byteOffset": 278708
    },
    {
      "buffer": 0,
      "byteLength": 5676,
      "byteOffset": 284384
    },
    {
      "buffer": 0,
      "byteLength": 5676,
      "byteOffset": 290060
    },
    {
      "buffer": 0,
      "byteLength": 5676,
      "byteOffset": 295736
    },
    {
      "buffer": 0,
      "byteLength": 5676,
      "byteOffset": 301412
    },
    {
      "buffer": 0,
      "byteLength": 5676,
      "byteOffset": 307088
    },
    {
      "buffer": 0,
      "byteLength": 5676,
      "byteOffset": 312764
    },
    {
      "buffer": 0,
      "byteLength": 5676,
      "byteOffset": 318440
    },
    {
      "buffer": 0,
      "byteLength": 5676,
      "byteOffset": 324116
    },
    {
      "buffer": 0,
      "byteLength": 5676,
      "byteOffset": 329792
    },
    {
      "buffer": 0,
      "byteLength": 5676,
      "byteOffset": 335468
    },
    {
      "buffer": 0,
      "byteLength": 5676,
      "byteOffset": 341144
    },
    {
      "buffer": 0,
      "byteLength": 5676,
      "byteOffset": 346820
    },
    {
      "buffer": 0,
      "byteLength": 5676,
      "byteOffset": 352496
    },
    {
      "buffer": 0,
      "byteLength": 512,
      "byteOffset": 358172
    }
  ],
  "samplers": [
    {
      "magFilter": 9729,
      "minFilter": 9987
    }
  ],
  "buffers": [
    {
      "byteLength": 358684,
      "uri": "data:application/octet-stream;base64,"
    }
  ]
}
