{
  "asset": {
    "copyright": "Copyright 2020 Omabuarts Studio. For more info, visit https://omabuarts.com/license",
    "generator": "Khronos glTF Blender I/O v1.6.16",
    "version": "2.0"
  },
  "scene": 0,
  "scenes": [
    {
      "name": "Scene",
      "nodes": [9]
    }
  ],
  "nodes": [
    {
      "name": "wing.L",
      "rotation": [
        -0.00634123245254159, 0.24987958371639252, -0.9671568870544434,
        0.046127427369356155
      ],
      "scale": [0.9999999403953552, 1, 1.0000001192092896],
      "translation": [
        0.6191527247428894, -0.07751679420471191, 0.0317707359790802
      ]
    },
    {
      "name": "wing.R",
      "rotation": [
        -0.00634123245254159, -0.24987958371639252, 0.9671568870544434,
        0.046127427369356155
      ],
      "scale": [0.9999999403953552, 1, 1.0000001192092896],
      "translation": [
        -0.6191527247428894, -0.07751679420471191, 0.0317707359790802
      ]
    },
    {
      "name": "tail.01",
      "rotation": [
        -7.285447622962238e-8, 0.2622983455657959, -0.9649868607521057,
        1.980298236503586e-8
      ],
      "scale": [1, 0.9999996423721313, 0.9999993443489075],
      "translation": [
        1.716845125089331e-16, -0.37088972330093384, -0.42864683270454407
      ]
    },
    {
      "name": "tail.02",
      "rotation": [
        -7.266114465664941e-8, 0.27154409885406494, -0.9624260067939758,
        2.0501010666862385e-8
      ],
      "translation": [
        1.4244317492937114e-16, -0.5153664350509644, -0.3770243227481842
      ]
    },
    {
      "name": "feet.L",
      "rotation": [-4.371138828673793e-8, 0, 1, 0],
      "translation": [
        0.24453005194664001, -0.6809056997299194, -0.021210694685578346
      ]
    },
    {
      "name": "feet.R",
      "rotation": [-4.371138828673793e-8, 0, 1, 0],
      "translation": [
        -0.24453005194664001, -0.6809056997299194, -0.021210694685578346
      ]
    },
    {
      "children": [0, 1, 2, 3, 4, 5],
      "name": "body",
      "rotation": [0.7071068286895752, 0, 0, 0.7071068286895752],
      "translation": [
        -1.2108189073723434e-16, -0.02121073007583618, 1.0262662172317505
      ]
    },
    {
      "children": [6],
      "name": "root",
      "rotation": [-0.7071068286895752, 0, 0, 0.7071068286895752],
      "scale": [1, 0.9999999403953552, 1]
    },
    {
      "mesh": 0,
      "name": "SnowOwl",
      "skin": 0
    },
    {
      "children": [8, 7],
      "name": "Rig"
    }
  ],
  "materials": [
    {
      "doubleSided": true,
      "name": "M_SnowOwl",
      "pbrMetallicRoughness": {
        "baseColorTexture": {
          "index": 0
        },
        "metallicFactor": 0,
        "roughnessFactor": 0.5
      }
    }
  ],
  "meshes": [
    {
      "extras": {
        "targetNames": [
          "eyes.blink",
          "eyes.happy",
          "eyes.sad",
          "eyes.sleep",
          "eyes.annoyed",
          "eyes.squint",
          "eyes.shrink",
          "eyes.dead",
          "eyes.lookOut",
          "eyes.lookIn",
          "eyes.lookUp",
          "eyes.lookDown",
          "eyes.excited-1",
          "eyes.excited-2",
          "eyes.rabid",
          "eyes.spin-1",
          "eyes.spin-2",
          "eyes.spin-3",
          "eyes.cry-1",
          "eyes.cry-2",
          "eyes.trauma",
          "teardrop-1.L",
          "teardrop-2.L",
          "sweat-1.L",
          "sweat-2.L",
          "teardrop-1.R",
          "teardrop-2.R",
          "sweat-1.R",
          "sweat-2.R"
        ]
      },
      "name": "SnowOwl_LOD2",
      "primitives": [
        {
          "attributes": {
            "POSITION": 0,
            "NORMAL": 1,
            "TEXCOORD_0": 2,
            "JOINTS_0": 3,
            "WEIGHTS_0": 4
          },
          "indices": 5,
          "material": 0,
          "targets": [
            {
              "POSITION": 6,
              "NORMAL": 7
            },
            {
              "POSITION": 8,
              "NORMAL": 9
            },
            {
              "POSITION": 10,
              "NORMAL": 11
            },
            {
              "POSITION": 12,
              "NORMAL": 13
            },
            {
              "POSITION": 14,
              "NORMAL": 15
            },
            {
              "POSITION": 16,
              "NORMAL": 17
            },
            {
              "POSITION": 18,
              "NORMAL": 19
            },
            {
              "POSITION": 20,
              "NORMAL": 21
            },
            {
              "POSITION": 22,
              "NORMAL": 23
            },
            {
              "POSITION": 24,
              "NORMAL": 25
            },
            {
              "POSITION": 26,
              "NORMAL": 27
            },
            {
              "POSITION": 28,
              "NORMAL": 29
            },
            {
              "POSITION": 30,
              "NORMAL": 31
            },
            {
              "POSITION": 32,
              "NORMAL": 33
            },
            {
              "POSITION": 34,
              "NORMAL": 35
            },
            {
              "POSITION": 36,
              "NORMAL": 37
            },
            {
              "POSITION": 38,
              "NORMAL": 39
            },
            {
              "POSITION": 40,
              "NORMAL": 41
            },
            {
              "POSITION": 42,
              "NORMAL": 43
            },
            {
              "POSITION": 44,
              "NORMAL": 45
            },
            {
              "POSITION": 46,
              "NORMAL": 47
            },
            {
              "POSITION": 48,
              "NORMAL": 49
            },
            {
              "POSITION": 50,
              "NORMAL": 51
            },
            {
              "POSITION": 52,
              "NORMAL": 53
            },
            {
              "POSITION": 54,
              "NORMAL": 55
            },
            {
              "POSITION": 56,
              "NORMAL": 57
            },
            {
              "POSITION": 58,
              "NORMAL": 59
            },
            {
              "POSITION": 60,
              "NORMAL": 61
            },
            {
              "POSITION": 62,
              "NORMAL": 63
            }
          ]
        }
      ],
      "weights": [
        0, 0, 0, 0, 0, 0, 0, 0, 0, 0, 0, 0, 0, 0, 0, 0, 0, 0, 0, 0, 0, 0, 0, 0,
        0, 0, 0, 0, 0
      ]
    }
  ],
  "textures": [
    {
      "sampler": 0,
      "source": 0
    }
  ],
  "images": [
    {
      "bufferView": 6,
      "mimeType": "image/png",
      "name": "T_SnowOwl"
    }
  ],
  "skins": [
    {
      "inverseBindMatrices": 64,
      "joints": [7, 6, 0, 1, 2, 3, 4, 5],
      "name": "Rig"
    }
  ],
  "accessors": [
    {
      "bufferView": 0,
      "componentType": 5126,
      "count": 640,
      "max": [0.8254618644714355, 1.933260202407837, 0.6399554014205933],
      "min": [-0.8254618644714355, 0, -0.7134590744972229],
      "type": "VEC3"
    },
    {
      "bufferView": 1,
      "componentType": 5126,
      "count": 640,
      "type": "VEC3"
    },
    {
      "bufferView": 2,
      "componentType": 5126,
      "count": 640,
      "type": "VEC2"
    },
    {
      "bufferView": 3,
      "componentType": 5121,
      "count": 640,
      "type": "VEC4"
    },
    {
      "bufferView": 4,
      "componentType": 5126,
      "count": 640,
      "type": "VEC4"
    },
    {
      "bufferView": 5,
      "componentType": 5123,
      "count": 3228,
      "type": "SCALAR"
    },
    {
      "bufferView": 7,
      "componentType": 5126,
      "count": 640,
      "max": [0.011332690715789795, 0.06276452541351318, 0.005641162395477295],
      "min": [
        -0.011332690715789795, -0.08203530311584473, -0.0047414302825927734
      ],
      "type": "VEC3"
    },
    {
      "bufferView": 8,
      "componentType": 5126,
      "count": 640,
      "type": "VEC3"
    },
    {
      "bufferView": 9,
      "componentType": 5126,
      "count": 640,
      "max": [0.023716852068901062, 0.12439906597137451, 0.0008315443992614746],
      "min": [
        -0.023716852068901062, -0.011805176734924316, -0.011250853538513184
      ],
      "type": "VEC3"
    },
    {
      "bufferView": 10,
      "componentType": 5126,
      "count": 640,
      "type": "VEC3"
    },
    {
      "bufferView": 11,
      "componentType": 5126,
      "count": 640,
      "max": [0.013869255781173706, 0.015503287315368652, 0.007955074310302734],
      "min": [
        -0.013869255781173706, -0.11293661594390869, -0.001326441764831543
      ],
      "type": "VEC3"
    },
    {
      "bufferView": 12,
      "componentType": 5126,
      "count": 640,
      "type": "VEC3"
    },
    {
      "bufferView": 13,
      "componentType": 5126,
      "count": 640,
      "max": [0.013869255781173706, 0.015503287315368652, 0.007955074310302734],
      "min": [
        -0.013869255781173706, -0.11293661594390869, -0.001326441764831543
      ],
      "type": "VEC3"
    },
    {
      "bufferView": 14,
      "componentType": 5126,
      "count": 640,
      "type": "VEC3"
    },
    {
      "bufferView": 15,
      "componentType": 5126,
      "count": 640,
      "max": [0.01909637451171875, 0.019678354263305664, 0.00585407018661499],
      "min": [-0.01909637451171875, -0.0501941442489624, -0.005532026290893555],
      "type": "VEC3"
    },
    {
      "bufferView": 16,
      "componentType": 5126,
      "count": 640,
      "type": "VEC3"
    },
    {
      "bufferView": 17,
      "componentType": 5126,
      "count": 640,
      "max": [0.13444773852825165, 0.039972901344299316, 0.037246376276016235],
      "min": [
        -0.13444773852825165, -0.040787458419799805, -0.019283413887023926
      ],
      "type": "VEC3"
    },
    {
      "bufferView": 18,
      "componentType": 5126,
      "count": 640,
      "type": "VEC3"
    },
    {
      "bufferView": 19,
      "componentType": 5126,
      "count": 640,
      "max": [0.06553514301776886, 0.06715452671051025, 0.01641342043876648],
      "min": [
        -0.06553514301776886, -0.06708419322967529, -0.015411972999572754
      ],
      "type": "VEC3"
    },
    {
      "bufferView": 20,
      "componentType": 5126,
      "count": 640,
      "type": "VEC3"
    },
    {
      "bufferView": 21,
      "componentType": 5126,
      "count": 640,
      "max": [0.07096579670906067, 0.07547521591186523, 0.01744014024734497],
      "min": [-0.07096579670906067, -0.0703052282333374, -0.017803311347961426],
      "type": "VEC3"
    },
    {
      "bufferView": 22,
      "componentType": 5126,
      "count": 640,
      "type": "VEC3"
    },
    {
      "bufferView": 23,
      "componentType": 5126,
      "count": 640,
      "max": [0.05451960861682892, 0.009107828140258789, 0],
      "min": [
        -0.05451960861682892, -0.013096094131469727, -0.014572501182556152
      ],
      "type": "VEC3"
    },
    {
      "bufferView": 24,
      "componentType": 5126,
      "count": 640,
      "type": "VEC3"
    },
    {
      "bufferView": 25,
      "componentType": 5126,
      "count": 640,
      "max": [0.05309823155403137, 0.010926485061645508, 0.014575332403182983],
      "min": [-0.05309823155403137, -0.011277437210083008, 0],
      "type": "VEC3"
    },
    {
      "bufferView": 26,
      "componentType": 5126,
      "count": 640,
      "type": "VEC3"
    },
    {
      "bufferView": 27,
      "componentType": 5126,
      "count": 640,
      "max": [0.011654913425445557, 0.05531108379364014, 0],
      "min": [-0.011654913425445557, 0, -0.005836606025695801],
      "type": "VEC3"
    },
    {
      "bufferView": 28,
      "componentType": 5126,
      "count": 640,
      "type": "VEC3"
    },
    {
      "bufferView": 29,
      "componentType": 5126,
      "count": 640,
      "max": [0.011512652039527893, 0, 0.0057478249073028564],
      "min": [-0.011512652039527893, -0.05662035942077637, 0],
      "type": "VEC3"
    },
    {
      "bufferView": 30,
      "componentType": 5126,
      "count": 640,
      "type": "VEC3"
    },
    {
      "bufferView": 31,
      "componentType": 5126,
      "count": 640,
      "max": [
        0.025516510009765625, 0.004131197929382324, 0.0036647915840148926
      ],
      "min": [
        -0.025516510009765625, -0.026702523231506348, -0.01288461685180664
      ],
      "type": "VEC3"
    },
    {
      "bufferView": 32,
      "componentType": 5126,
      "count": 640,
      "type": "VEC3"
    },
    {
      "bufferView": 33,
      "componentType": 5126,
      "count": 640,
      "max": [0.024524211883544922, 0.029645442962646484, 0],
      "min": [
        -0.024524211883544922, -0.0011882781982421875, -0.020182669162750244
      ],
      "type": "VEC3"
    },
    {
      "bufferView": 34,
      "componentType": 5126,
      "count": 640,
      "type": "VEC3"
    },
    {
      "bufferView": 35,
      "componentType": 5126,
      "count": 640,
      "max": [0.07593093812465668, 0.0017380714416503906, 0.021091312170028687],
      "min": [
        -0.07593093812465668, -0.0017379522323608398, -0.0210912823677063
      ],
      "type": "VEC3"
    },
    {
      "bufferView": 36,
      "componentType": 5126,
      "count": 640,
      "type": "VEC3"
    },
    {
      "bufferView": 37,
      "componentType": 5126,
      "count": 640,
      "max": [0.0381474494934082, 0.04098033905029297, 0.007569551467895508],
      "min": [-0.0381474494934082, -0.03431975841522217, -0.0418829619884491],
      "type": "VEC3"
    },
    {
      "bufferView": 38,
      "componentType": 5126,
      "count": 640,
      "type": "VEC3"
    },
    {
      "bufferView": 39,
      "componentType": 5126,
      "count": 640,
      "max": [0.18270279467105865, 0.18035101890563965, 0.049497753381729126],
      "min": [-0.18270279467105865, -0.1870337724685669, -0.0514376163482666],
      "type": "VEC3"
    },
    {
      "bufferView": 40,
      "componentType": 5126,
      "count": 640,
      "type": "VEC3"
    },
    {
      "bufferView": 41,
      "componentType": 5126,
      "count": 640,
      "max": [0.1800914704799652, 0.1871030330657959, 0.04524654150009155],
      "min": [-0.1800914704799652, -0.1830751895904541, -0.053067535161972046],
      "type": "VEC3"
    },
    {
      "bufferView": 42,
      "componentType": 5126,
      "count": 640,
      "type": "VEC3"
    },
    {
      "bufferView": 43,
      "componentType": 5126,
      "count": 640,
      "max": [0.03677359223365784, 0.04931080341339111, 0.06736814975738525],
      "min": [
        -0.03677359223365784, -0.19372427463531494, -0.005596518516540527
      ],
      "type": "VEC3"
    },
    {
      "bufferView": 44,
      "componentType": 5126,
      "count": 640,
      "type": "VEC3"
    },
    {
      "bufferView": 45,
      "componentType": 5126,
      "count": 640,
      "max": [0.03675723075866699, 0.04931080341339111, 0.070556640625],
      "min": [-0.03675723075866699, -0.2389909029006958, -0.005596518516540527],
      "type": "VEC3"
    },
    {
      "bufferView": 46,
      "componentType": 5126,
      "count": 640,
      "type": "VEC3"
    },
    {
      "bufferView": 47,
      "componentType": 5126,
      "count": 640,
      "max": [0.10450965166091919, 0.10356581211090088, 0.08761537075042725],
      "min": [-0.10450965166091919, -0.22108197212219238, -0.0941479504108429],
      "type": "VEC3"
    },
    {
      "bufferView": 48,
      "componentType": 5126,
      "count": 640,
      "type": "VEC3"
    },
    {
      "bufferView": 49,
      "componentType": 5126,
      "count": 640,
      "max": [0.14575496315956116, 0, 0.10637301206588745],
      "min": [0, -0.30906105041503906, 0],
      "type": "VEC3"
    },
    {
      "bufferView": 50,
      "componentType": 5126,
      "count": 640,
      "type": "VEC3"
    },
    {
      "bufferView": 51,
      "componentType": 5126,
      "count": 640,
      "max": [0.1455816924571991, 0, 0.11407017707824707],
      "min": [0, -0.41833651065826416, 0],
      "type": "VEC3"
    },
    {
      "bufferView": 52,
      "componentType": 5126,
      "count": 640,
      "type": "VEC3"
    },
    {
      "bufferView": 53,
      "componentType": 5126,
      "count": 640,
      "max": [0.1439853012561798, 0.506905198097229, 0.05932176113128662],
      "min": [0, 0, -0.07098141312599182],
      "type": "VEC3"
    },
    {
      "bufferView": 54,
      "componentType": 5126,
      "count": 640,
      "type": "VEC3"
    },
    {
      "bufferView": 55,
      "componentType": 5126,
      "count": 640,
      "max": [0.14381206035614014, 0.3976297378540039, 0.06701898574829102],
      "min": [0, 0, -0.06328418850898743],
      "type": "VEC3"
    },
    {
      "bufferView": 56,
      "componentType": 5126,
      "count": 640,
      "type": "VEC3"
    },
    {
      "bufferView": 57,
      "componentType": 5126,
      "count": 640,
      "max": [0, 0, 0.10637301206588745],
      "min": [-0.14575496315956116, -0.30906105041503906, 0],
      "type": "VEC3"
    },
    {
      "bufferView": 58,
      "componentType": 5126,
      "count": 640,
      "type": "VEC3"
    },
    {
      "bufferView": 59,
      "componentType": 5126,
      "count": 640,
      "max": [0, 0, 0.11407017707824707],
      "min": [-0.1455816924571991, -0.41833651065826416, 0],
      "type": "VEC3"
    },
    {
      "bufferView": 60,
      "componentType": 5126,
      "count": 640,
      "type": "VEC3"
    },
    {
      "bufferView": 61,
      "componentType": 5126,
      "count": 640,
      "max": [0, 0.506905198097229, 0.05932176113128662],
      "min": [-0.1439853012561798, 0, -0.07098141312599182],
      "type": "VEC3"
    },
    {
      "bufferView": 62,
      "componentType": 5126,
      "count": 640,
      "type": "VEC3"
    },
    {
      "bufferView": 63,
      "componentType": 5126,
      "count": 640,
      "max": [0, 0.3976297378540039, 0.06701898574829102],
      "min": [-0.14381206035614014, 0, -0.06328418850898743],
      "type": "VEC3"
    },
    {
      "bufferView": 64,
      "componentType": 5126,
      "count": 640,
      "type": "VEC3"
    },
    {
      "bufferView": 65,
      "componentType": 5126,
      "count": 8,
      "type": "MAT4"
    }
  ],
  "bufferViews": [
    {
      "buffer": 0,
      "byteLength": 7680,
      "byteOffset": 0
    },
    {
      "buffer": 0,
      "byteLength": 7680,
      "byteOffset": 7680
    },
    {
      "buffer": 0,
      "byteLength": 5120,
      "byteOffset": 15360
    },
    {
      "buffer": 0,
      "byteLength": 2560,
      "byteOffset": 20480
    },
    {
      "buffer": 0,
      "byteLength": 10240,
      "byteOffset": 23040
    },
    {
      "buffer": 0,
      "byteLength": 6456,
      "byteOffset": 33280
    },
    {
      "buffer": 0,
      "byteLength": 131,
      "byteOffset": 39736
    },
    {
      "buffer": 0,
      "byteLength": 7680,
      "byteOffset": 39868
    },
    {
      "buffer": 0,
      "byteLength": 7680,
      "byteOffset": 47548
    },
    {
      "buffer": 0,
      "byteLength": 7680,
      "byteOffset": 55228
    },
    {
      "buffer": 0,
      "byteLength": 7680,
      "byteOffset": 62908
    },
    {
      "buffer": 0,
      "byteLength": 7680,
      "byteOffset": 70588
    },
    {
      "buffer": 0,
      "byteLength": 7680,
      "byteOffset": 78268
    },
    {
      "buffer": 0,
      "byteLength": 7680,
      "byteOffset": 85948
    },
    {
      "buffer": 0,
      "byteLength": 7680,
      "byteOffset": 93628
    },
    {
      "buffer": 0,
      "byteLength": 7680,
      "byteOffset": 101308
    },
    {
      "buffer": 0,
      "byteLength": 7680,
      "byteOffset": 108988
    },
    {
      "buffer": 0,
      "byteLength": 7680,
      "byteOffset": 116668
    },
    {
      "buffer": 0,
      "byteLength": 7680,
      "byteOffset": 124348
    },
    {
      "buffer": 0,
      "byteLength": 7680,
      "byteOffset": 132028
    },
    {
      "buffer": 0,
      "byteLength": 7680,
      "byteOffset": 139708
    },
    {
      "buffer": 0,
      "byteLength": 7680,
      "byteOffset": 147388
    },
    {
      "buffer": 0,
      "byteLength": 7680,
      "byteOffset": 155068
    },
    {
      "buffer": 0,
      "byteLength": 7680,
      "byteOffset": 162748
    },
    {
      "buffer": 0,
      "byteLength": 7680,
      "byteOffset": 170428
    },
    {
      "buffer": 0,
      "byteLength": 7680,
      "byteOffset": 178108
    },
    {
      "buffer": 0,
      "byteLength": 7680,
      "byteOffset": 185788
    },
    {
      "buffer": 0,
      "byteLength": 7680,
      "byteOffset": 193468
    },
    {
      "buffer": 0,
      "byteLength": 7680,
      "byteOffset": 201148
    },
    {
      "buffer": 0,
      "byteLength": 7680,
      "byteOffset": 208828
    },
    {
      "buffer": 0,
      "byteLength": 7680,
      "byteOffset": 216508
    },
    {
      "buffer": 0,
      "byteLength": 7680,
      "byteOffset": 224188
    },
    {
      "buffer": 0,
      "byteLength": 7680,
      "byteOffset": 231868
    },
    {
      "buffer": 0,
      "byteLength": 7680,
      "byteOffset": 239548
    },
    {
      "buffer": 0,
      "byteLength": 7680,
      "byteOffset": 247228
    },
    {
      "buffer": 0,
      "byteLength": 7680,
      "byteOffset": 254908
    },
    {
      "buffer": 0,
      "byteLength": 7680,
      "byteOffset": 262588
    },
    {
      "buffer": 0,
      "byteLength": 7680,
      "byteOffset": 270268
    },
    {
      "buffer": 0,
      "byteLength": 7680,
      "byteOffset": 277948
    },
    {
      "buffer": 0,
      "byteLength": 7680,
      "byteOffset": 285628
    },
    {
      "buffer": 0,
      "byteLength": 7680,
      "byteOffset": 293308
    },
    {
      "buffer": 0,
      "byteLength": 7680,
      "byteOffset": 300988
    },
    {
      "buffer": 0,
      "byteLength": 7680,
      "byteOffset": 308668
    },
    {
      "buffer": 0,
      "byteLength": 7680,
      "byteOffset": 316348
    },
    {
      "buffer": 0,
      "byteLength": 7680,
      "byteOffset": 324028
    },
    {
      "buffer": 0,
      "byteLength": 7680,
      "byteOffset": 331708
    },
    {
      "buffer": 0,
      "byteLength": 7680,
      "byteOffset": 339388
    },
    {
      "buffer": 0,
      "byteLength": 7680,
      "byteOffset": 347068
    },
    {
      "buffer": 0,
      "byteLength": 7680,
      "byteOffset": 354748
    },
    {
      "buffer": 0,
      "byteLength": 7680,
      "byteOffset": 362428
    },
    {
      "buffer": 0,
      "byteLength": 7680,
      "byteOffset": 370108
    },
    {
      "buffer": 0,
      "byteLength": 7680,
      "byteOffset": 377788
    },
    {
      "buffer": 0,
      "byteLength": 7680,
      "byteOffset": 385468
    },
    {
      "buffer": 0,
      "byteLength": 7680,
      "byteOffset": 393148
    },
    {
      "buffer": 0,
      "byteLength": 7680,
      "byteOffset": 400828
    },
    {
      "buffer": 0,
      "byteLength": 7680,
      "byteOffset": 408508
    },
    {
      "buffer": 0,
      "byteLength": 7680,
      "byteOffset": 416188
    },
    {
      "buffer": 0,
      "byteLength": 7680,
      "byteOffset": 423868
    },
    {
      "buffer": 0,
      "byteLength": 7680,
      "byteOffset": 431548
    },
    {
      "buffer": 0,
      "byteLength": 7680,
      "byteOffset": 439228
    },
    {
      "buffer": 0,
      "byteLength": 7680,
      "byteOffset": 446908
    },
    {
      "buffer": 0,
      "byteLength": 7680,
      "byteOffset": 454588
    },
    {
      "buffer": 0,
      "byteLength": 7680,
      "byteOffset": 462268
    },
    {
      "buffer": 0,
      "byteLength": 7680,
      "byteOffset": 469948
    },
    {
      "buffer": 0,
      "byteLength": 7680,
      "byteOffset": 477628
    },
    {
      "buffer": 0,
      "byteLength": 512,
      "byteOffset": 485308
    }
  ],
  "samplers": [
    {
      "magFilter": 9729,
      "minFilter": 9987
    }
  ],
  "buffers": [
    {
      "byteLength": 485820,
      "uri": "data:application/octet-stream;base64,"
    }
  ]
}
